<?xml version="1.0" encoding="utf-8"?>
<svg version="1.0" width="882.000000pt" height="283.000000pt" viewBox="0 0 882.000000 283.000000" preserveAspectRatio="xMidYMid meet" xmlns="http://www.w3.org/2000/svg">
  <g transform="translate(0.000000,283.000000) scale(0.100000,-0.100000)" fill="#000000" stroke="none">
    <path d="M6624 2509 c-41 -46 -77 -63 -143 -68 l-66 -6 -5 -74 c-6 -85 6 -74 -145 -137 -159 -66 -272 -127 -340 -182 -74 -59 -129 -158 -138 -251 -10 -91 -9 -92 76 -70 63 16 271 49 313 49 29 0 12 -29 -33 -57 -27 -16 -118 -60 -203 -97 -259 -113 -328 -177 -338 -316 -4 -67 -7 -73 -41 -101 -53 -43 -112 -69 -158 -69 -60 0 -94 33 -133 129 -37 93 -54 111 -104 111 -71 0 -105 -41 -151 -181 -33 -102 -47 -131 -94 -189 -43 -54 -60 -69 -131 -119 -110 -77 -273 -142 -485 -196 -124 -31 -128 -33 -90 -40 59 -12 332 11 422 35 247 66 373 196 431 445 22 92 37 115 77 115 33 0 64 -41 85 -110 20 -66 47 -102 92 -126 64 -33 146 -7 310 100 108 70 174 101 269 125 l74 18 22 64 c13 35 23 65 23 67 0 7 -99 0 -186 -13 -122 -18 -144 -19 -144 -2 0 34 62 70 256 147 71 29 155 65 187 82 113 61 200 174 208 274 l4 39 -134 3 c-74 1 -173 -2 -220 -7 -202 -22 -104 54 254 199 262 106 389 196 430 305 16 40 16 49 4 82 -17 45 -30 50 -55 22z" style="fill: rgb(255, 255, 255);"/>
    <path d="M3668 2384 c-20 -19 20 -415 43 -430 5 -3 9 40 9 95 0 90 2 101 18 101 10 0 38 -21 63 -47 113 -117 130 -271 41 -367 -31 -32 -96 -65 -130 -66 -22 0 -24 3 -20 53 4 65 -18 72 -45 12 -56 -125 -83 -148 -170 -148 -95 0 -158 51 -332 267 l-80 99 -3 -41 c-4 -52 1 -61 96 -174 115 -139 170 -224 178 -273 7 -49 0 -91 -21 -119 -13 -17 -16 -17 -76 13 -135 67 -239 15 -239 -121 0 -90 58 -119 185 -93 41 9 80 13 85 10 5 -3 3 -24 -5 -50 -42 -140 -172 -263 -351 -331 -103 -39 -247 -80 -370 -104 -167 -32 -184 -40 -74 -34 241 13 452 49 590 100 181 68 272 191 290 389 4 50 16 110 25 135 10 25 19 77 20 115 l3 70 49 -3 c71 -4 141 16 182 53 20 17 52 38 71 45 106 41 222 151 254 240 25 70 24 178 -3 254 -32 92 -78 161 -175 263 -86 91 -97 99 -108 87z" style="fill: rgb(255, 255, 255);"/>
    <path d="M6870 2337 c-67 -35 -102 -86 -108 -153 l-5 -56 52 37 c68 49 142 58 218 25 28 -12 62 -33 76 -48 34 -36 75 -119 83 -169 6 -38 4 -42 -22 -56 -124 -64 -203 -195 -218 -357 -3 -30 -5 -56 -6 -57 0 -1 -26 -20 -57 -41 -88 -60 -148 -117 -179 -170 -25 -42 -29 -57 -29 -135 l0 -88 -40 -31 c-57 -43 -130 -78 -162 -78 -14 0 -58 16 -96 36 -38 19 -81 36 -97 36 -67 2 -171 -95 -205 -192 -22 -62 -15 -169 10 -176 6 -1 26 29 45 69 40 81 84 133 122 142 18 5 48 -3 99 -26 96 -42 162 -48 217 -20 23 12 98 66 166 121 133 107 201 147 268 158 36 6 43 12 53 43 7 19 16 54 20 77 l7 42 -44 0 c-23 0 -83 -11 -133 -25 -155 -43 -188 -31 -121 43 41 45 101 76 276 142 70 27 142 55 158 64 52 27 62 22 62 -30 0 -94 140 -380 269 -549 77 -101 189 -212 236 -234 155 -73 335 65 365 278 5 38 7 85 3 103 -27 142 -162 216 -283 156 -54 -28 -80 -73 -80 -141 0 -41 5 -53 30 -79 28 -27 36 -30 79 -26 31 3 68 17 101 37 51 31 83 34 92 8 9 -22 -11 -72 -44 -111 -102 -124 -229 -129 -354 -14 -85 78 -217 275 -339 503 -26 50 -53 97 -58 107 -9 13 1 28 54 80 72 70 95 111 111 198 10 49 9 66 -6 104 -21 55 -58 71 -152 63 -74 -6 -80 -1 -89 68 -8 60 -18 90 -58 172 -40 82 -78 127 -130 152 -56 27 -103 27 -157 -2z m499 -533 c21 -4 31 -12 31 -24 0 -32 -86 -116 -160 -154 -78 -42 -201 -86 -237 -86 -20 0 -22 3 -16 33 30 159 207 266 382 231z" style="fill: rgb(255, 255, 255);"/>
    <path d="M5713 2326 c-34 -28 -66 -111 -78 -198 -8 -58 -25 -62 -55 -13 -43 70 -190 165 -256 165 -30 0 -34 -3 -34 -26 0 -55 51 -97 114 -92 24 1 47 -7 77 -28 65 -44 119 -101 119 -126 0 -35 -79 -101 -182 -151 -121 -60 -196 -88 -388 -148 -85 -26 -150 -48 -145 -48 17 -1 232 45 318 69 94 25 183 60 246 97 57 33 158 128 179 168 25 49 42 126 42 192 0 78 16 98 73 90 22 -3 53 -15 68 -26 32 -24 50 -26 67 -9 37 37 -15 97 -92 105 -35 4 -47 1 -73 -21z" style="fill: rgb(255, 255, 255);"/>
    <path d="M1471 2156 c-109 -127 -165 -230 -186 -339 -11 -59 -11 -77 1 -118 45 -151 255 -104 348 79 9 17 15 32 12 32 -2 0 -30 -16 -62 -35 -64 -39 -107 -44 -154 -20 -75 39 -68 126 26 314 24 47 53 101 64 119 35 52 9 36 -49 -32z" style="fill: rgb(255, 255, 255);"/>
    <path d="M4780 2134 c-56 -86 -79 -149 -87 -241 -7 -77 7 -115 54 -144 46 -28 109 -22 159 16 40 31 74 80 74 109 0 17 -2 18 -17 4 -64 -56 -132 -62 -175 -16 -28 30 -29 36 -25 97 6 86 25 150 74 244 2 4 2 7 -2 7 -3 0 -28 -34 -55 -76z" style="fill: rgb(255, 255, 255);"/>
    <path d="M1917 2032 c-20 -21 -37 -41 -37 -45 0 -4 62 -7 139 -7 108 0 141 -3 150 -14 15 -18 8 -22 -127 -76 -53 -22 -92 -40 -86 -40 32 0 168 42 201 63 53 34 143 116 143 132 0 19 -48 25 -204 25 l-142 0 -37 -38z" style="fill: rgb(255, 255, 255);"/>
    <path d="M6562 1903 c-77 -129 -104 -262 -68 -331 49 -95 178 -87 245 15 44 66 41 79 -12 48 -78 -45 -156 -27 -173 41 -12 47 3 157 30 223 14 35 24 66 22 68 -2 3 -22 -26 -44 -64z" style="fill: rgb(255, 255, 255);"/>
    <path d="M2563 1942 c-58 -18 -109 -69 -150 -148 -55 -108 -91 -235 -74 -263 10 -16 14 -11 44 71 27 71 64 134 93 159 48 42 117 35 166 -16 18 -19 38 -35 45 -35 33 0 44 91 19 151 -27 65 -87 98 -143 81z" style="fill: rgb(255, 255, 255);"/>
    <path d="M4233 1734 c-17 -44 27 -170 103 -294 44 -72 98 -206 120 -298 9 -39 19 -70 21 -68 2 2 4 33 4 68 0 70 -30 206 -67 306 -14 35 -22 68 -18 73 9 15 115 -47 179 -104 67 -60 95 -112 95 -182 0 -127 -104 -234 -282 -290 -258 -82 -480 -30 -591 138 -36 54 -67 141 -67 187 0 47 29 125 70 191 l41 64 -42 -45 c-23 -25 -56 -74 -73 -110 -29 -60 -31 -73 -31 -170 0 -98 2 -109 31 -165 63 -119 189 -211 344 -251 78 -20 234 -14 320 11 177 53 299 181 330 345 14 73 13 116 -5 185 -23 86 -53 141 -113 207 -68 73 -129 117 -228 167 -103 51 -132 59 -141 35z" style="fill: rgb(255, 255, 255);"/>
    <path d="M1184 1684 c-16 -68 -59 -132 -172 -259 -134 -150 -200 -294 -209 -455 -13 -233 84 -364 271 -365 60 0 78 4 118 27 42 25 52 40 108 150 79 156 129 224 184 249 60 27 88 24 182 -22 93 -46 165 -59 214 -39 50 21 107 96 156 208 1 2 30 -7 65 -19 120 -40 279 -14 363 60 10 9 52 21 96 27 73 11 164 44 290 108 75 38 110 108 110 219 0 44 -3 57 -15 57 -8 0 -15 -9 -15 -20 0 -43 -39 -100 -84 -122 -49 -23 -76 -19 -76 12 0 25 -17 60 -29 60 -5 0 -12 -19 -16 -42 -4 -24 -14 -55 -21 -70 -17 -32 -75 -65 -132 -74 -39 -6 -40 -6 -48 32 -12 48 -30 54 -39 14 -10 -44 -57 -95 -107 -115 -65 -26 -164 -30 -231 -11 -69 20 -149 82 -195 151 -47 71 -61 87 -72 80 -20 -12 -9 -58 36 -153 60 -126 65 -158 29 -200 -61 -72 -146 -83 -246 -30 -70 37 -154 47 -224 28 -89 -25 -170 -124 -221 -270 -46 -133 -80 -180 -150 -200 -77 -23 -199 33 -238 109 -24 46 -30 168 -12 246 17 75 24 92 63 170 29 56 119 185 161 230 93 100 153 218 125 246 -9 9 -14 5 -19 -17z" style="fill: rgb(255, 255, 255);"/>
    <path d="M7716 1528 c-29 -80 -29 -79 57 -106 43 -13 81 -21 84 -18 11 10 42 110 37 118 -5 8 -129 48 -149 48 -7 0 -20 -19 -29 -42z" style="fill: rgb(255, 255, 255);"/>
    <path d="M1462 1475 c-14 -29 -38 -32 -124 -11 -42 10 -60 10 -67 2 -16 -21 -52 -98 -48 -103 7 -6 117 -32 140 -33 9 0 23 12 29 26 13 28 10 28 148 8 l46 -6 24 51 c14 31 20 55 14 60 -8 8 -113 31 -139 31 -7 0 -17 -11 -23 -25z" style="fill: rgb(255, 255, 255);"/>
    <path d="M6346 1295 c-19 -29 -40 -30 -131 -11 -33 8 -64 10 -68 6 -5 -4 -19 -31 -32 -59 l-24 -51 27 -6 c15 -3 43 -10 62 -15 63 -16 89 -12 96 16 7 30 34 32 134 10 36 -7 66 -13 67 -12 8 8 51 112 48 115 -6 7 -118 32 -141 32 -12 0 -29 -11 -38 -25z" style="fill: rgb(255, 255, 255);"/>
    <path d="M3445 1180 c-9 -28 -15 -57 -12 -64 6 -14 150 -51 165 -42 5 3 17 29 26 57 20 60 19 60 -58 84 -88 27 -102 22 -121 -35z" style="fill: rgb(255, 255, 255);"/>
    <path d="M2922 1088 c-9 -22 -18 -28 -41 -28 -16 0 -31 6 -34 13 -3 8 -11 6 -27 -8 -19 -17 -36 -20 -119 -20 -86 0 -101 -3 -146 -28 -27 -15 -76 -50 -109 -78 -32 -27 -72 -57 -87 -65 -16 -8 -29 -17 -29 -20 0 -9 61 27 128 76 89 64 146 83 231 74 50 -5 76 -2 105 10 24 10 52 14 75 10 45 -7 75 19 69 63 l-4 28 -12 -27z" style="fill: rgb(255, 255, 255);"/>
    <path d="M5665 1026 c-32 -14 -68 -50 -78 -78 -5 -15 1 -17 59 -11 53 5 68 3 84 -12 38 -35 26 -63 -67 -154 -81 -78 -85 -83 -43 -60 68 37 172 145 194 202 23 60 12 91 -39 113 -42 17 -71 17 -110 0z" style="fill: rgb(255, 255, 255);"/>
    <path d="M3493 1010 c-28 -17 -70 -76 -61 -85 2 -2 24 1 48 6 147 33 145 -68 -3 -192 -71 -60 -61 -64 22 -8 175 117 218 299 70 299 -26 0 -57 -8 -76 -20z" style="fill: rgb(255, 255, 255);"/>
    <path d="M1995 831 c-18 -36 -20 -36 -116 -16 -40 9 -73 14 -74 13 -9 -11 -56 -111 -53 -114 2 -2 39 -11 83 -21 59 -12 80 -14 83 -5 2 6 11 21 20 32 16 18 20 19 82 5 98 -21 98 -21 125 37 13 29 21 55 17 59 -4 3 -34 12 -67 19 -33 7 -65 15 -72 17 -6 3 -19 -9 -28 -26z" style="fill: rgb(255, 255, 255);"/>
    <path d="M7280 824 c-19 -8 -43 -13 -52 -11 -12 4 -24 -6 -38 -28 -29 -48 -80 -69 -177 -73 -46 -2 -83 -8 -83 -12 0 -9 65 -26 135 -35 95 -13 271 43 338 107 40 38 41 40 23 54 -26 18 -102 17 -146 -2z" style="fill: rgb(255, 255, 255);"/>
  </g>
</svg>