<?xml version="1.0" standalone="no"?>
        <!DOCTYPE svg PUBLIC "-//W3C//DTD SVG 1.1//EN" 
        "http://www.w3.org/Graphics/SVG/1.1/DTD/svg11.dtd">  <svg xmlns="http://www.w3.org/2000/svg" xmlns:xlink="http://www.w3.org/1999/xlink" width="40" zoomAndPan="magnify" viewBox="0 0 30 30.000001" height="40" preserveAspectRatio="xMidYMid meet" version="1.0"><defs><clipPath id="id1"><path d="M 8 17 L 26.613281 17 L 26.613281 22.828125 L 8 22.828125 Z M 8 17 " clip-rule="nonzero"/></clipPath><clipPath id="id2"><path d="M 8 6.132812 L 26.613281 6.132812 L 26.613281 12 L 8 12 Z M 8 6.132812 " clip-rule="nonzero"/></clipPath><clipPath id="id3"><path d="M 3.386719 6.132812 L 26.613281 6.132812 L 26.613281 22.828125 L 3.386719 22.828125 Z M 3.386719 6.132812 " clip-rule="nonzero"/></clipPath></defs><g clip-path="url(#id1)"><path fill="rgb(0%, 50.19989%, 0%)" d="M 8.554688 22.828125 L 24.027344 22.828125 C 25.449219 22.828125 26.605469 21.675781 26.605469 20.257812 L 26.605469 17.691406 L 8.554688 17.691406 Z M 8.554688 22.828125 " fill-opacity="1" fill-rule="nonzero"/></g><g clip-path="url(#id2)"><path fill="rgb(93.328857%, 93.328857%, 93.328857%)" d="M 24.027344 6.132812 L 8.554688 6.132812 L 8.554688 11.269531 L 26.605469 11.269531 L 26.605469 8.703125 C 26.605469 7.285156 25.449219 6.132812 24.027344 6.132812 Z M 24.027344 6.132812 " fill-opacity="1" fill-rule="nonzero"/></g><g clip-path="url(#id3)"><path fill="rgb(85.879517%, 8.628845%, 10.5896%)" d="M 26.605469 11.269531 L 9.199219 11.269531 L 9.199219 6.132812 L 5.972656 6.132812 C 4.550781 6.132812 3.394531 7.285156 3.394531 8.703125 L 3.394531 20.257812 C 3.394531 21.675781 4.550781 22.828125 5.972656 22.828125 L 9.199219 22.828125 L 9.199219 17.691406 L 26.605469 17.691406 Z M 26.605469 11.269531 " fill-opacity="1" fill-rule="nonzero"/></g><path fill="rgb(93.328857%, 93.328857%, 93.328857%)" d="M 5.734375 8.351562 C 5.933594 8.714844 5.933594 8.855469 5.875 8.890625 C 5.816406 8.921875 5.722656 8.832031 5.519531 8.46875 C 5.320312 8.105469 5.089844 7.605469 5.144531 7.570312 C 5.203125 7.539062 5.53125 7.988281 5.734375 8.351562 Z M 6.953125 8.125 C 6.75 8.492188 6.632812 8.8125 6.691406 8.84375 C 6.75 8.875 6.960938 8.605469 7.164062 8.242188 C 7.363281 7.878906 7.480469 7.558594 7.421875 7.527344 C 7.363281 7.496094 7.152344 7.761719 6.953125 8.125 Z M 6.589844 8.710938 L 6.398438 7.800781 L 6.378906 7.796875 C 6.445312 7.765625 6.496094 7.714844 6.496094 7.644531 C 6.496094 7.539062 6.402344 7.457031 6.285156 7.457031 C 6.167969 7.457031 6.074219 7.542969 6.074219 7.644531 C 6.074219 7.714844 6.125 7.769531 6.1875 7.800781 L 6.003906 8.722656 Z M 6.589844 8.710938 " fill-opacity="1" fill-rule="nonzero"/><path fill="rgb(93.328857%, 93.328857%, 93.328857%)" d="M 7.71875 10.476562 C 7.542969 10.332031 6.847656 9.734375 6.515625 9.375 C 6.546875 9.273438 6.5625 9.164062 6.558594 9.042969 L 6.566406 9.042969 L 6.566406 9.050781 L 7.144531 9.050781 L 7.144531 9.160156 L 7.847656 9.160156 L 7.847656 8.820312 L 7.144531 8.820312 L 7.144531 8.929688 L 6.570312 8.929688 L 6.570312 8.933594 L 6.550781 8.933594 L 6.550781 8.761719 L 6.023438 8.761719 L 6.023438 8.933594 L 5.8125 8.933594 L 5.8125 8.945312 L 5.398438 8.945312 L 5.398438 8.804688 L 4.734375 8.804688 L 4.734375 9.175781 L 5.398438 9.175781 L 5.398438 9.035156 L 5.8125 9.035156 L 5.8125 9.046875 L 5.992188 9.046875 L 5.96875 9.285156 C 5.96875 9.285156 5.296875 9.316406 5.117188 9.34375 C 4.675781 9.414062 4.816406 9.542969 5.179688 9.664062 C 5.347656 9.71875 5.511719 9.742188 5.667969 9.75 C 5.414062 10.023438 4.890625 10.425781 4.765625 10.496094 C 4.625 10.578125 4.625 10.679688 4.898438 10.617188 C 5.160156 10.558594 5.769531 10.023438 5.980469 9.753906 L 6.164062 9.746094 C 6.261719 9.742188 6.339844 9.679688 6.402344 9.601562 C 6.679688 9.925781 7.21875 10.40625 7.433594 10.539062 C 7.667969 10.679688 7.773438 10.675781 7.855469 10.660156 C 7.9375 10.648438 7.898438 10.628906 7.71875 10.476562 Z M 7.71875 10.476562 " fill-opacity="1" fill-rule="nonzero"/></svg>  